<?xml version="1.0" standalone="no"?>
<!DOCTYPE svg PUBLIC "-//W3C//DTD SVG 20010904//EN"
 "http://www.w3.org/TR/2001/REC-SVG-20010904/DTD/svg10.dtd">
<svg version="1.0" xmlns="http://www.w3.org/2000/svg"
 width="200.000000pt" height="200.000000pt" viewBox="0 0 200.000000 200.000000"
 preserveAspectRatio="xMidYMid meet">

<g transform="translate(0.000000,200.000000) scale(0.100000,-0.100000)"
fill="#000000" stroke="none">
<path d="M880 1786 c0 -9 -7 -16 -15 -16 -8 0 -15 -4 -15 -10 0 -5 -16 -12
-36 -16 -19 -4 -38 -13 -41 -20 -3 -8 -16 -14 -29 -14 -14 0 -27 -7 -30 -15
-4 -8 -11 -15 -18 -15 -6 0 -28 -9 -49 -20 -20 -11 -50 -20 -67 -20 -21 0 -45
-14 -82 -46 -78 -67 -90 -84 -83 -112 3 -13 1 -30 -5 -38 -7 -7 -9 -17 -6 -22
3 -5 -6 -20 -19 -32 -14 -13 -24 -33 -24 -44 1 -20 1 -20 6 -1 13 52 43 59 43
10 0 -30 -3 -35 -23 -35 -13 0 -24 -6 -25 -12 -7 -47 -10 -89 -6 -70 6 26 19
29 28 5 5 -11 1 -22 -10 -30 -16 -12 -14 -16 25 -53 32 -29 42 -45 38 -60 -5
-21 26 -70 46 -70 25 0 38 -18 42 -55 3 -22 12 -43 20 -48 8 -4 15 -13 15 -20
0 -7 12 -25 26 -40 14 -16 23 -31 20 -34 -3 -3 6 -19 19 -35 l25 -30 -22 -27
c-18 -22 -34 -29 -75 -34 -28 -3 -67 -12 -85 -21 -68 -31 -125 -47 -179 -50
-37 -2 -66 -10 -85 -23 -26 -19 -32 -20 -54 -7 -27 14 -88 18 -106 6 -20 -13
-32 -47 -27 -75 3 -16 1 -27 -6 -27 -8 0 -11 -74 -11 -255 l0 -255 589 0 590
0 89 30 c50 17 97 30 105 30 9 0 18 -13 22 -30 l7 -30 299 0 299 0 0 258 c0
141 -4 262 -8 268 -8 12 -216 144 -228 144 -4 0 -28 20 -54 44 -56 52 -96 63
-171 47 -37 -8 -68 -8 -110 -1 -44 8 -69 8 -99 -1 -32 -10 -43 -9 -55 1 -15
12 -15 14 -1 22 20 11 21 29 1 22 -32 -13 -14 27 18 41 34 14 64 59 47 70 -17
11 -11 27 8 21 19 -6 72 51 72 78 0 10 9 16 23 17 16 1 18 2 5 6 -10 2 -18 7
-18 9 0 12 24 50 42 68 14 13 19 27 15 50 -6 40 8 66 36 67 l22 0 -22 11 c-18
9 -20 14 -10 29 9 14 7 29 -11 71 -12 29 -22 59 -22 65 0 6 -14 23 -31 38
l-32 26 22 29 c11 16 21 33 21 37 0 4 -16 18 -36 31 -22 15 -34 29 -30 37 7
19 -29 38 -61 32 -30 -6 -53 16 -53 50 0 19 -4 24 -17 19 -27 -11 -81 14 -105
47 -12 18 -27 35 -33 39 -15 11 -63 9 -70 -2 -4 -6 -23 -10 -43 -9 -20 1 -41
1 -47 -1 -5 -1 -12 -1 -15 0 -3 1 -12 3 -20 5 -8 2 -23 6 -32 10 -13 5 -18 2
-18 -9z m503 -227 c7 -25 -11 -20 -30 8 -13 20 -13 21 5 16 11 -3 22 -14 25
-24z m61 -40 c-2 -5 -14 -1 -24 9 -26 22 -25 24 5 10 13 -6 22 -15 19 -19z
m-991 -11 c-13 -26 -18 -29 -21 -15 -4 19 14 47 29 47 5 0 2 -15 -8 -32z m700
-192 c7 3 5 0 -4 -8 -9 -7 -14 -19 -12 -25 5 -14 -9 -16 -44 -7 -25 7 -30 23
-12 41 8 8 20 8 36 2 14 -5 30 -7 36 -3z m-196 -13 c-4 -3 2 -12 13 -20 11 -8
20 -20 20 -26 0 -7 14 -20 31 -29 27 -16 34 -16 65 -3 19 8 32 10 29 5 -3 -6
5 -10 20 -10 14 0 28 -6 31 -14 3 -8 13 -12 25 -9 22 6 23 1 9 -30 -9 -20 -9
-20 2 -3 20 30 47 56 58 56 26 0 43 -104 25 -159 -3 -12 -3 -21 2 -21 4 0 8
-17 8 -38 -1 -29 -4 -37 -18 -36 -13 1 -21 -13 -33 -54 -19 -63 -66 -120 -161
-192 -70 -53 -106 -60 -218 -38 -33 6 -80 12 -105 13 -39 1 -47 -2 -57 -24
-11 -25 -12 -23 -13 21 0 26 -4 49 -9 52 -12 8 -21 -45 -21 -126 0 -119 78
-248 150 -248 10 0 20 10 23 21 5 17 11 21 33 16 15 -3 38 0 51 6 27 12 48 70
27 75 -10 2 -9 8 1 28 13 25 77 99 92 105 4 2 40 40 78 84 101 115 99 113 91
87 -5 -14 0 -31 15 -51 33 -44 24 -152 -25 -299 -46 -136 -101 -217 -180 -262
-67 -39 -92 -39 -253 2 -54 13 -88 64 -133 197 -30 88 -31 99 -25 190 7 103
18 144 47 177 18 20 18 22 -22 94 -22 40 -40 78 -40 84 0 6 -7 31 -16 55 -8
25 -19 72 -24 105 -4 34 -13 76 -18 94 -8 24 -8 32 0 30 6 -2 12 -12 14 -22 4
-30 24 -44 24 -17 0 20 4 22 24 17 14 -3 27 -2 30 2 3 5 32 4 65 -2 50 -8 63
-7 78 6 21 18 43 13 43 -10 0 -15 2 -15 10 -2 5 8 10 24 10 36 0 13 11 26 28
33 15 8 35 17 44 22 12 6 18 4 21 -9 4 -14 5 -13 6 4 1 18 18 44 30 44 2 0 1
-3 -2 -7z m-197 -13 c0 -12 -37 -14 -44 -2 -2 4 6 9 20 10 13 1 24 -3 24 -8z
m-300 -145 c0 -3 -9 0 -20 7 -11 7 -20 18 -20 25 0 8 8 5 20 -7 11 -11 20 -22
20 -25z m5 -45 c3 -5 1 -10 -4 -10 -6 0 -11 5 -11 10 0 6 2 10 4 10 3 0 8 -4
11 -10z"/>
<path d="M936 1225 c4 -8 11 -15 16 -15 6 0 5 6 -2 15 -7 8 -14 15 -16 15 -2
0 -1 -7 2 -15z"/>
<path d="M751 1100 c-13 -11 -19 -20 -14 -20 6 0 18 9 28 20 23 25 17 25 -14
0z"/>
<path d="M790 1069 c0 -4 -9 -11 -20 -14 -27 -9 -25 -39 4 -53 26 -12 79 2
111 28 14 12 19 12 22 3 5 -13 45 -18 56 -7 3 4 -4 14 -16 24 -20 16 -25 17
-50 3 -26 -13 -32 -12 -68 5 -21 11 -39 16 -39 11z"/>
<path d="M776 925 c-15 -8 -37 -15 -48 -15 -13 0 -24 -12 -34 -37 -14 -33 -14
-40 0 -70 11 -23 22 -33 38 -33 35 0 228 29 239 35 26 16 1 23 -69 18 -72 -5
-81 -4 -99 16 -13 14 -26 19 -39 15 -17 -6 -17 -5 -4 9 17 18 179 27 243 13
21 -5 37 -5 37 0 0 13 -87 47 -129 49 -20 2 -52 6 -71 9 -23 4 -45 1 -64 -9z"/>
<path d="M1077 438 c-77 -108 -121 -188 -102 -188 20 0 69 72 126 182 27 54
48 98 47 98 -2 0 -34 -42 -71 -92z"/>
<path d="M861 225 c15 -15 79 -34 66 -20 -4 5 -24 14 -44 21 -30 11 -34 11
-22 -1z"/>
<path d="M1300 15 l-45 -13 63 -1 c47 -1 63 2 60 12 -6 17 -25 17 -78 2z"/>
</g>
</svg>
